<?xml version="1.0" standalone="no"?>
<!DOCTYPE svg PUBLIC "-//W3C//DTD SVG 20010904//EN"
 "http://www.w3.org/TR/2001/REC-SVG-20010904/DTD/svg10.dtd">
<svg version="1.0" xmlns="http://www.w3.org/2000/svg"
 width="512.000000pt" height="512.000000pt" viewBox="0 0 512.000000 512.000000"
 preserveAspectRatio="xMidYMid meet">
<metadata>
Created by potrace 1.14, written by Peter Selinger 2001-2017
</metadata>
<g transform="translate(0.000000,512.000000) scale(0.100000,-0.100000)"
fill="#000000" stroke="none">
<path d="M2332 5100 c-18 -11 -41 -34 -52 -52 -19 -31 -20 -51 -20 -290 l0
-258 -612 0 c-597 0 -613 0 -654 -21 -31 -15 -48 -32 -63 -63 l-21 -42 0
-2124 0 -2124 21 -42 c15 -31 32 -48 63 -63 43 -21 43 -21 1584 -19 1540 3
1541 3 1569 24 15 11 36 36 45 55 17 32 18 156 18 2169 0 2013 -1 2137 -18
2169 -9 19 -30 44 -45 55 -28 21 -39 21 -658 24 l-629 2 0 258 c0 239 -1 259
-20 290 -41 66 -62 72 -280 72 -177 0 -198 -2 -228 -20z m353 -1515 c269 -57
475 -310 475 -585 0 -272 -208 -530 -470 -584 l-65 -13 185 -5 c176 -4 190 -6
280 -37 123 -42 218 -101 306 -193 85 -88 135 -171 177 -293 30 -88 31 -94 35
-317 4 -217 3 -229 -18 -272 -16 -33 -32 -50 -64 -65 -42 -21 -54 -21 -970
-21 l-928 0 -40 22 c-71 40 -78 67 -78 298 0 219 12 308 57 414 75 179 230
334 408 409 97 41 199 57 362 58 l148 0 -73 19 c-108 28 -187 75 -272 160 -87
86 -131 162 -160 276 -36 141 -18 294 52 427 42 80 163 201 245 245 125 66
268 86 408 57z"/>
</g>
</svg>
